<svg width="1127" height="256" viewBox="0 0 1127 256" fill="none" xmlns="http://www.w3.org/2000/svg">
<rect width="204.8" height="69.9733" rx="34.9867" fill="#663CEE"/>
<rect x="64" y="93.0133" width="140.8" height="69.9733" rx="34.9867" fill="#411CBA"/>
<rect y="186.027" width="204.8" height="69.9733" rx="34.9867" fill="#350B88"/>
<path fill-rule="evenodd" clip-rule="evenodd" d="M712.873 193.294C720.993 196.883 730.301 198.677 740.797 198.677C751.563 198.677 761.095 196.928 769.394 193.429C777.737 189.885 784.242 185.041 788.907 178.895C793.617 172.705 795.972 165.617 795.972 157.633C796.017 149.155 793.303 142.09 787.83 136.438C782.403 130.785 774.351 127.331 763.675 126.075V124.999C771.659 123.833 778.186 120.737 783.255 115.713C788.369 110.689 790.903 104.297 790.858 96.5368C790.858 89.0456 788.772 82.3394 784.601 76.4182C780.429 70.4522 774.597 65.7421 767.106 62.2881C759.615 58.8341 750.935 57.1071 741.066 57.1071C731.153 57.1071 722.316 58.8789 714.556 62.4227C706.84 65.9664 700.74 70.8783 696.254 77.1584C691.768 83.3935 689.48 90.6156 689.391 98.8245H721.217C721.307 95.6845 722.226 92.9258 723.976 90.5483C725.725 88.1709 728.08 86.3317 731.041 85.0308C734.046 83.73 737.388 83.0795 741.066 83.0795C744.565 83.0795 747.638 83.73 750.285 85.0308C752.976 86.3317 755.062 88.1709 756.542 90.5483C758.067 92.8809 758.808 95.5948 758.763 98.6899C758.808 101.875 757.955 104.701 756.206 107.168C754.456 109.59 752.012 111.474 748.872 112.82C745.776 114.166 742.188 114.839 738.106 114.839H724.716V138.523H738.106C742.771 138.523 746.808 139.219 750.217 140.609C753.671 142 756.34 143.951 758.224 146.463C760.108 148.975 761.028 151.846 760.983 155.076C761.028 158.306 760.198 161.176 758.494 163.688C756.789 166.156 754.411 168.107 751.361 169.542C748.356 170.933 744.879 171.628 740.932 171.628C736.984 171.628 733.463 170.978 730.368 169.677C727.273 168.376 724.828 166.582 723.034 164.294C721.239 161.961 720.275 159.292 720.14 156.287H686.632C686.722 164.586 689.099 171.92 693.764 178.29C698.429 184.659 704.799 189.661 712.873 193.294ZM256 58.9911L296.103 196.793H328.131L352.959 113.224H354.036L378.865 196.793H410.96L450.995 58.9911H414.257L393.398 149.491H392.255L368.503 58.9911H338.493L314.741 149.289H313.597L292.806 58.9911H256ZM473.604 192.352C481.454 196.614 490.784 198.745 501.595 198.745C510.611 198.745 518.551 197.376 525.414 194.64C532.277 191.859 537.817 187.979 542.034 183C546.295 177.976 549.054 172.077 550.31 165.303L520.098 164.429C519.246 166.716 517.968 168.645 516.263 170.215C514.559 171.785 512.517 172.974 510.14 173.781C507.763 174.589 505.116 174.993 502.2 174.993C497.984 174.993 494.35 174.118 491.3 172.368C488.25 170.619 485.895 168.174 484.235 165.034C482.575 161.849 481.745 158.149 481.745 153.932V153.057H550.646V144.848C550.646 136.37 549.413 128.857 546.946 122.307C544.478 115.713 541.024 110.173 536.584 105.688C532.143 101.202 526.872 97.8152 520.771 95.5275C514.671 93.2398 507.942 92.0959 500.585 92.0959C490.178 92.0959 481.14 94.3388 473.469 98.8245C465.798 103.265 459.855 109.501 455.638 117.53C451.422 125.515 449.313 134.845 449.313 145.521C449.313 156.511 451.399 165.999 455.571 173.983C459.788 181.923 465.798 188.046 473.604 192.352ZM481.765 133.948C481.928 130.621 482.819 127.638 484.437 124.999C486.141 122.173 488.451 119.952 491.367 118.338C494.283 116.678 497.58 115.848 501.258 115.848C504.892 115.848 508.099 116.633 510.88 118.203C513.706 119.728 515.927 121.859 517.542 124.595C519.156 127.331 519.986 130.449 520.031 133.948H481.765ZM567.451 196.793V58.9911H600.354V111.138H601.027C602.373 107.998 604.279 104.97 606.746 102.054C609.258 99.1385 612.443 96.7611 616.301 94.9219C620.204 93.0379 624.869 92.0959 630.296 92.0959C637.474 92.0959 644.18 93.9799 650.415 97.7479C656.695 101.516 661.764 107.325 665.622 115.175C669.479 123.025 671.408 133.028 671.408 145.185C671.408 156.893 669.547 166.694 665.824 174.589C662.145 182.484 657.166 188.405 650.886 192.352C644.651 196.3 637.72 198.274 630.095 198.274C624.891 198.274 620.383 197.421 616.57 195.717C612.757 194.012 609.55 191.769 606.948 188.988C604.391 186.207 602.418 183.224 601.027 180.039H600.018V196.793H567.451ZM599.681 145.117C599.681 150.68 600.421 155.524 601.902 159.651C603.427 163.778 605.602 166.985 608.428 169.273C611.299 171.516 614.731 172.637 618.723 172.637C622.76 172.637 626.192 171.516 629.018 169.273C631.844 166.985 633.975 163.778 635.41 159.651C636.891 155.524 637.631 150.68 637.631 145.117C637.631 139.555 636.891 134.733 635.41 130.651C633.975 126.569 631.844 123.406 629.018 121.164C626.237 118.921 622.805 117.799 618.723 117.799C614.686 117.799 611.254 118.898 608.428 121.096C605.602 123.294 603.427 126.434 601.902 130.516C600.421 134.598 599.681 139.465 599.681 145.117ZM815.031 58.9911H856.277L891.266 144.31H892.881L927.87 58.9911H969.116V196.793H936.684V112.147H935.54L902.436 195.919H881.711L848.607 111.676H847.463V196.793H815.031V58.9911ZM1111.21 166.447C1117.04 155.906 1119.96 143.054 1119.96 127.892C1119.96 112.73 1117.04 99.8787 1111.21 89.3372C1105.38 78.7956 1097.48 70.7886 1087.52 65.316C1077.61 59.8434 1066.48 57.1071 1054.15 57.1071C1041.77 57.1071 1030.62 59.8434 1020.71 65.316C1010.79 70.7886 1002.92 78.7956 997.09 89.3372C991.304 99.8787 988.41 112.73 988.41 127.892C988.41 143.009 991.304 155.838 997.09 166.38C1002.92 176.877 1010.79 184.884 1020.71 190.401C1030.62 195.919 1041.77 198.677 1054.15 198.677C1054.6 198.677 1055.06 198.674 1055.51 198.666V198.893H1126.4V174.403H1106.05C1107.92 171.934 1109.64 169.282 1111.21 166.447ZM1082.07 105.149C1084.63 111.34 1085.91 118.921 1085.91 127.892C1085.91 136.864 1084.63 144.445 1082.07 150.635C1079.56 156.825 1075.93 161.513 1071.17 164.698C1066.46 167.883 1060.79 169.475 1054.15 169.475C1047.56 169.475 1041.88 167.883 1037.13 164.698C1032.37 161.513 1028.71 156.825 1026.16 150.635C1023.65 144.445 1022.39 136.864 1022.39 127.892C1022.39 118.921 1023.65 111.34 1026.16 105.149C1028.71 98.9591 1032.37 94.2715 1037.13 91.0866C1041.88 87.9017 1047.56 86.3093 1054.15 86.3093C1060.79 86.3093 1066.46 87.9017 1071.17 91.0866C1075.93 94.2715 1079.56 98.9591 1082.07 105.149Z" fill="white"/>
</svg>
